<svg xmlns="http://www.w3.org/2000/svg" width="237" height="65" viewBox="-0.192 -0.217 237 65"><path fill="#FFF" d="M133.832 49.924a2.836 2.836 0 0 1-.844.738l-.007.004-10.742 10.738-14.015-14.002a67.41 67.41 0 0 1-.243 2.412l-.005.038c-.004.021-.011.04-.015.061l14.283 14.249 13.406-13.404a14.576 14.576 0 0 0-.847-.414 29.485 29.485 0 0 0-.971-.42zM100.294 41.302c0-.435.134-.929.351-1.472l-7.752-7.745 4.5-4.498c.064-.227.144-.449.238-.663l.972-1.992c.255-.51.69-.858 1.261-1.012a1.997 1.997 0 0 1 1.165.031l5.569-5.567c-.854.147-1.723.234-2.596.258l-.44.012-13.449 13.45 9.963 9.939.011-.014c.156-.193.207-.258.207-.727zM113.048 11.709c.031.045.06.093.089.139l9.083-9.079 8.841 8.833c.146-.023.295-.035.445-.035.393 0 .768.122 1.085.351.688.41 1.343.867 1.943 1.357a15.651 15.651 0 0 1 1.754 1.68l.03.037c.302.378.422.833.354 1.323a1.616 1.616 0 0 1-.239.655l15.132 15.118-13.288 13.283c.452.296.894.601 1.319.913l.252.186.022.066 14.48-14.479L122.218 0l-10.327 10.327.038.033c.405.406.781.86 1.119 1.349z"/><path fill="#FFF" d="M127.598 53.188c-.119 0-.241-.009-.362-.021l-4.965 4.961-13.85-13.794v.009a72.54 72.54 0 0 1-.114 1.971l13.942 13.906 8.075-8.074-1.362.759a3.502 3.502 0 0 1-1.364.283zM96.111 32.072l1.536-1.535a9.082 9.082 0 0 1-.354-1.215 3.27 3.27 0 0 1-.055-.413l-3.188 3.186 6.951 6.934c.211-.435.455-.893.715-1.372l-5.605-5.585zM121.416 6.781l.806-.805 6.728 6.701c.208-.164.431-.322.676-.467.194-.114.39-.215.583-.312l-7.987-7.966-2.859 2.859 1.327-.097c.247 0 .49.031.726.087zM114.07 14.124l4.8-4.797c.008-.225.02-.448.039-.665.035-.388.106-.784.213-1.176l.168-.623-5.728 5.727c.117.239.225.484.316.737.117.251.18.518.192.797zM148.382 32.033L136.257 44.15c.363.208.724.416 1.072.626l.226.139 12.863-12.862-14.578-14.538c-.418.256-.849.504-1.287.744l13.829 13.774zM111.043 17.148a.247.247 0 0 0-.151.022l-.091.04c-.884.338-1.796.622-2.716.854l-6.32 6.319c.39.289.772.585 1.15.889l8.128-8.124zM119.308 6.795l-.018.067.071-.071z"/><path fill="#FFF" d="M118.909 8.662c-.02.217-.031.439-.039.665l2.546-2.545a3.086 3.086 0 0 0-.728-.087l-1.327.097-.071.071-.168.623a6.784 6.784 0 0 0-.213 1.176zM154.333 25.954l1.13.36 9.123-2.98.451-6.323a2.033 2.033 0 0 0-.137-.948 2.809 2.809 0 0 0-.496-.813 8.558 8.558 0 0 1-.902-1.174 11.003 11.003 0 0 1-.723-1.31 2.427 2.427 0 0 1-.158-.722 2.297 2.297 0 0 1 .067-.722c.21-.633.458-1.242.745-1.829a11.68 11.68 0 0 1 1.016-1.695.864.864 0 0 1 .475-.36.906.906 0 0 1 .564 0c1.144.36 2.265.775 3.365 1.242 1.099.466 2.174.971 3.229 1.512.24.152.428.346.563.588.136.241.188.511.157.813a105.01 105.01 0 0 1-1.716 9.665 55.08 55.08 0 0 1 4.268-1.266 70.761 70.761 0 0 1 4.313-.948 2.45 2.45 0 0 1 1.58.362 10.44 10.44 0 0 1 2.598 2.348 10.6 10.6 0 0 1 1.694 3.071c.119.301.119.596 0 .88-.122.287-.333.49-.633.609-.332.151-.663.28-.994.384a7.331 7.331 0 0 1-1.039.248 4.424 4.424 0 0 1-.881.091c-.286 0-.58-.031-.881-.091l-1.535-.406a6.252 6.252 0 0 0-1.31-.136c-.45 0-.889.061-1.31.181a90.987 90.987 0 0 0-7.225 2.258 185.631 185.631 0 0 0 23.078 18.651c.181.12.277.286.293.496.016.211-.067.391-.247.541l-4.337 3.162a1.741 1.741 0 0 1-.609.25c-.227.045-.46.021-.699-.068a33.087 33.087 0 0 1-3.568-1.49 29.16 29.16 0 0 1-3.388-1.942 12.96 12.96 0 0 1-1.964-1.581 10.691 10.691 0 0 1-1.604-1.986 32.414 32.414 0 0 0-4.2-4.99 30.403 30.403 0 0 0-5.103-3.996 21.172 21.172 0 0 1-.769 2.236 58.194 58.194 0 0 1-.948 2.188l3.161 2.214a2.2 2.2 0 0 1 .609.563c.166.227.294.475.385.746.119.361.21.738.271 1.129.059.391.089.783.089 1.174 0 .181-.015.368-.044.564a1.452 1.452 0 0 1-.181.52c-.121.271-.271.52-.452.745s-.392.444-.633.655c-.271.21-.572.309-.902.294a1.269 1.269 0 0 1-.858-.386 32.394 32.394 0 0 0-2.146-1.964 43.927 43.927 0 0 0-2.28-1.784 13.824 13.824 0 0 1-5.148 3.524 4.533 4.533 0 0 1-1.468.293 5.85 5.85 0 0 1-1.514-.157 16.594 16.594 0 0 1-3.205-1.333 14.944 14.944 0 0 1-2.846-2.01.676.676 0 0 1-.248-.361 1.089 1.089 0 0 1-.023-.496l.407-1.399c0-.062.022-.12.067-.182.045-.06.112-.09.203-.09.06 0 .128.015.204.046.074.029.112.074.112.133.21.243.459.438.746.588.284.152.578.258.879.318.634.089 1.271.127 1.92.111a9.166 9.166 0 0 0 1.92-.248 3.245 3.245 0 0 0 1.061-.384c.346-.195.654-.429.927-.7a25.564 25.564 0 0 0 4.019-5.214 25.896 25.896 0 0 0 2.574-6.121l-1.129.317a6.23 6.23 0 0 1-.902.113 5.804 5.804 0 0 1-.904-.023l-3.433-.678-3.433-.631a.823.823 0 0 1-.541-.429.955.955 0 0 1-.09-.7c.12-.572.3-1.122.542-1.647.244-.529.56-1.02.951-1.47zM193.643 23.221c2.156-1.078 4.338-2.057 6.54-2.932s4.44-1.646 6.717-2.319a1.977 1.977 0 0 1-.854-.48 1.75 1.75 0 0 1-.504-.832 9.75 9.75 0 0 0-.984-2.582c-.452-.815-1-1.56-1.641-2.23a2.334 2.334 0 0 1-.635-1.159 2.43 2.43 0 0 1 .066-1.334.695.695 0 0 1 .788-.482 15.39 15.39 0 0 1 3.718 1.182c1.196.553 2.29 1.27 3.282 2.144.262.234.487.497.678.788.189.292.328.611.415.962.088.379.139.766.153 1.159.015.395-.021.781-.109 1.16l.918-.438c.177-.086.373-.131.592-.131s.43.058.635.175a9.5 9.5 0 0 1 1.925 1.597 8.86 8.86 0 0 1 1.443 2.078c.116.204.183.431.197.679.015.247-.021.488-.109.721a46.052 46.052 0 0 0-1.838 5.557 48.701 48.701 0 0 0-1.138 5.73c-.059.352-.16.678-.306.985-.146.307-.351.59-.612.853-.35.351-.737.642-1.159.875a5.547 5.547 0 0 1-1.335.526 1.442 1.442 0 0 1-.657.021 1.319 1.319 0 0 1-.567-.285l-1.051-.875c-.875.088-1.749.219-2.625.395-.875.175-1.735.393-2.581.656a45.935 45.935 0 0 1 .088 6.341 34.65 34.65 0 0 1 2.778-1.027c.947-.307 1.902-.59 2.864-.854a3.737 3.737 0 0 1 0-1.137c.06-.379.19-.729.395-1.051a.58.58 0 0 1 .657-.306c.467.118.89.321 1.269.612.379.292.7.656.963 1.094.146-.875.401-1.721.766-2.537.364-.815.81-1.59 1.334-2.318.059.729.072 1.451.044 2.165a17.219 17.219 0 0 1-.219 2.122 9.276 9.276 0 0 0-.176 2.186c.029.73.146 1.459.351 2.188.059.204.059.4 0 .591-.059.189-.16.358-.306.504-.147.146-.307.275-.481.393s-.35.22-.525.307a1.142 1.142 0 0 1-.656.152 1.023 1.023 0 0 1-.612-.239 6.958 6.958 0 0 1-1.662-1.751 40.106 40.106 0 0 0-5.491 2.887 42.923 42.923 0 0 0-5.01 3.676 1.37 1.37 0 0 1-.568.219.95.95 0 0 1-.613-.131c-.642-.35-1.174-.832-1.597-1.444s-.679-1.298-.766-2.056c-.03-.264.022-.518.153-.766.132-.246.313-.444.547-.591l1.137-.655a39.289 39.289 0 0 0 1.291-6.496c.248-2.203.299-4.412.154-6.628a19.841 19.841 0 0 0-.46-3.304 18.386 18.386 0 0 0-1.028-3.172 4.324 4.324 0 0 1-1.925.088 2.888 2.888 0 0 1-1.138-.417 3.663 3.663 0 0 1-.92-.809zm7.524.087c.35.409.597.869.744 1.379.146.51.188 1.028.131 1.553a31.997 31.997 0 0 0 4.463-1.75c.204-.087.407-.138.612-.153.204-.014.395.021.569.11l.918.306c.116-.553.249-1.109.395-1.662.146-.554.306-1.094.481-1.62a36.745 36.745 0 0 0-8.313 1.837zm1.182 5.207l.306 2.407c.292-.496.612-.955.963-1.377.35-.423.758-.811 1.226-1.161l-1.269.088c-.41.028-.818.043-1.226.043zm.831 4.158c.7-.292 1.422-.533 2.166-.724a13.322 13.322 0 0 1 2.253-.372 22.137 22.137 0 0 1 .351-2.712 11.285 11.285 0 0 0-4.77 3.808zm12.863-8.007a22.973 22.973 0 0 1 2.691-3.282 21.19 21.19 0 0 1 3.259-2.712 28.991 28.991 0 0 0 3.391-2.712 24.6 24.6 0 0 0 2.91-3.239c.145-.174.327-.291.546-.349a1.1 1.1 0 0 1 .679.042 9.503 9.503 0 0 1 2.428 1.423 9.186 9.186 0 0 1 1.903 2.078c.146.234.203.476.175.722a1.048 1.048 0 0 1-.306.635 33.733 33.733 0 0 0-3.15 3.631 30.805 30.805 0 0 0-2.581 4.069 19.967 19.967 0 0 1 4.463 3.741 19.567 19.567 0 0 1 3.193 4.878c.379.759.612 1.553.7 2.385.088.83.028 1.655-.175 2.471a7.19 7.19 0 0 1-.678 1.815 7.452 7.452 0 0 1-1.116 1.553c-.322.32-.708.489-1.16.503a1.73 1.73 0 0 1-1.202-.415 9.5 9.5 0 0 0-2.91-1.662 8.432 8.432 0 0 0-3.304-.481 71.374 71.374 0 0 1 .262 6.125c0 .699-.168 1.349-.503 1.946a4.131 4.131 0 0 1-1.378 1.465c-.438.292-.905.555-1.399.789-.496.232-1.007.438-1.531.612-.41.146-.803.313-1.183.501a7.088 7.088 0 0 0-1.093.681l-.395-.788a1.86 1.86 0 0 1-.153-.59 2.695 2.695 0 0 1 .022-.592 82.845 82.845 0 0 0 .436-22.487l-.699-.875a1.85 1.85 0 0 1-.437-1.225c0-.321.036-.634.109-.939.072-.307.168-.606.285-.898l-2.099 1.181zm5.076-2.625c.233 0 .466.021.699.065.233.044.468.125.7.24.204.117.379.278.525.481.146.205.219.438.219.701l.176.437a13.15 13.15 0 0 1 .655-1.728 16.25 16.25 0 0 1 .875-1.641c-.672.175-1.327.38-1.969.612-.641.235-1.268.511-1.88.833zm3.149 5.817a72.87 72.87 0 0 1 .811 4.682c.218 1.575.399 3.166.546 4.768.729-.262 1.48-.465 2.253-.611a15.697 15.697 0 0 1 2.297-.263 9.963 9.963 0 0 0-1.771-5.119 9.842 9.842 0 0 0-4.136-3.457z"/><path fill="#FFF" d="M103.922 42.076c.242-.334 1.065-1.532 1.232-1.912.167-.378 1.328-7.216 1.419-7.61.063-.365.292-2.07.475-2.373.183-.304.28-1.647.523-1.891a33.787 33.787 0 0 0-.319 3.918c-.03 1.307.016 2.595.137 3.87a74.99 74.99 0 0 1 4.306-1.502c1.44-.457 2.905-.85 4.395-1.185a114.4 114.4 0 0 1 2.094-4.578 136.868 136.868 0 0 1 2.278-4.485c-.911.365-1.785.79-2.62 1.276a23.365 23.365 0 0 0-2.391 1.593l-1.64-1.092a9.725 9.725 0 0 1-.364-1.298 6.616 6.616 0 0 1-.137-1.343 2.368 2.368 0 0 0-.204-.706 1.994 1.994 0 0 0-.388-.57 1.06 1.06 0 0 1-.228-.886.974.974 0 0 1 .502-.707c.332-.15.637-.342.909-.57.273-.227.517-.479.729-.751a41.812 41.812 0 0 0 2.62-3.689 42.084 42.084 0 0 0 2.208-3.964c.152-.271.266-.566.342-.887.075-.318.098-.629.069-.935 0-.364.015-.712.045-1.046.029-.334.091-.668.182-1.003l.592-.044c.243 0 .471.039.684.114a1.6 1.6 0 0 1 .592.386l1.776 1.731c.184.183.311.387.388.616.076.228.083.462.022.706a21.939 21.939 0 0 1-.865 3.053 24.95 24.95 0 0 1-1.275 2.914 20.847 20.847 0 0 0 3.871-1.481 24.771 24.771 0 0 0 3.552-2.162 4.97 4.97 0 0 1 .707-.502c.258-.15.523-.289.797-.411.183-.06.371-.09.57-.09.195 0 .37.061.523.181.668.395 1.29.829 1.866 1.299s1.124.996 1.64 1.571a.69.69 0 0 1 .137.546.56.56 0 0 1-.319.454 28.852 28.852 0 0 1-2.914 1.571 32.9 32.9 0 0 1-3.052 1.254 3.111 3.111 0 0 0-.819.478 3.758 3.758 0 0 0-.638.661 73.537 73.537 0 0 0-1.525 2.048c-.502.7-.995 1.398-1.481 2.096.425-.121.835-.258 1.23-.41a7.687 7.687 0 0 0 1.139-.547c.425-.242.849-.471 1.275-.683.425-.212.85-.394 1.276-.547.241-.09.491-.143.75-.159.259-.015.493.023.706.114 1.124.333 2.164.828 3.119 1.48a11.562 11.562 0 0 1 2.528 2.346c.152.212.258.462.319.751.059.29.075.568.044.842l-.182 1.821 1.551-.09c.516 0 1.016.083 1.501.251a4.72 4.72 0 0 1 1.368.75l1.092 1.139c.242.274.379.601.411.98a1.69 1.69 0 0 1-.229 1.024l-1.367 1.777a1.33 1.33 0 0 1-.479.365c-.196.09-.401.12-.614.09a48.65 48.65 0 0 0-2.027-.229c-.683-.06-1.374-.09-2.071-.09a116.036 116.036 0 0 1-.82 4.304 206.62 206.62 0 0 1-.956 4.303c.789.427 1.563.866 2.322 1.321.758.455 1.488.942 2.186 1.455l.412 1.186a1.28 1.28 0 0 1-.023.525.96.96 0 0 1-.252.432l-.91 1.003a.872.872 0 0 1-.569.251 1.179 1.179 0 0 1-.614-.116 18.01 18.01 0 0 0-1.822-.955 34.89 34.89 0 0 0-1.867-.776c-.063.245-.167.465-.319.662s-.333.355-.546.479l-3.917 2.187c-.427.183-.858.242-1.298.183a2.604 2.604 0 0 1-1.207-.501 34.031 34.031 0 0 1-2.323-2.575 25.406 25.406 0 0 1-2.004-2.846 29.346 29.346 0 0 0-3.007-.115 29.718 29.718 0 0 0-3.004.206 4.61 4.61 0 0 0-1.095.229c-.363.12-.729.271-1.092.454a7.2 7.2 0 0 1-1.8-1.661 6.091 6.091 0 0 1-1.07-2.21 1.376 1.376 0 0 1 .068-.819c.106-.273.28-.485.524-.638a6.545 6.545 0 0 0 1.252-1.093c.38-.425.69-.894.934-1.411-.517.151-1.018.326-1.503.523-.486.197-.973.403-1.456.615a4.626 4.626 0 0 1-1.709-.41 4.882 4.882 0 0 1-1.436-1.002c.122 1.791.145 3.59.069 5.397a71.45 71.45 0 0 1-.434 5.396 2 2 0 0 1-.455.979c-.243.29-.531.492-.866.616a14.239 14.239 0 0 1-2.777-2.348 16.427 16.427 0 0 1-2.141-2.937 3.503 3.503 0 0 1-.319-.979 4.235 4.235 0 0 1-.045-1.069c.15-1.581.929-1.064.929-2.657s3.128-5.634 2.946-7.213c-.061-.515-4.103-.659-4.284-1.129a7.487 7.487 0 0 0-.684-1.344 7.798 7.798 0 0 1-.616-1.229 8.166 8.166 0 0 1-.386-1.274 2.26 2.26 0 0 1 0-.912 4.11 4.11 0 0 1 .272-.865l.957-1.958c.121-.244.325-.402.615-.479a.98.98 0 0 1 .796.115c.668.487 1.328 1.001 1.981 1.548s1.283 1.109 1.891 1.684c.242.215.439.472.593.775.151.306.242.623.271.957.031.395.038.789.023 1.185-.014.391-1.699 10.519-1.758 10.913zm.052-24.442c.303-.457.621-.903.955-1.345.334-.439.699-.856 1.093-1.252a13.744 13.744 0 0 0-1.046-1.753 12.097 12.097 0 0 0-1.321-1.572.912.912 0 0 1-.273-.5.868.868 0 0 1 .092-.547l.272-.363c.121-.122.257-.22.41-.297a1.77 1.77 0 0 1 .501-.159 23.055 23.055 0 0 1 1.799-.023c.592.014 1.192.038 1.799.067.547.061 1.07.191 1.571.388.502.198.964.465 1.39.797a8.63 8.63 0 0 1 1.002 1.208c.303.438.546.918.729 1.434.091.183.129.38.113.594a3.16 3.16 0 0 1-.113.636l-.41.957a.616.616 0 0 1-.387.431.583.583 0 0 1-.569-.067 1.257 1.257 0 0 0-1.138 0 23.1 23.1 0 0 1-3.165.956 17.33 17.33 0 0 1-3.304.41zm13.481 22.999l1.549.045 1.685-3.551-2.049.364-1.185 3.142zm5.237-11.841l-1.64 3.371 1.687-.411c.15-.515.279-1.047.386-1.593.106-.547.189-1.094.252-1.641l-.685.274zm2.642 7.331a29.886 29.886 0 0 1-1.207 2.416c-.44.788-.919 1.547-1.436 2.275a38.27 38.27 0 0 1 3.029.478c.987.198 1.966.449 2.938.752a31.84 31.84 0 0 0 .752-3.118c.197-1.047.37-2.102.524-3.166a60.836 60.836 0 0 0-4.6.363zm1.047 11.614l.546-.912c-.363-.06-.721-.122-1.069-.181-.35-.06-.691-.121-1.024-.181l1.547 1.274zm3.963-21.997c-.76.273-1.511.54-2.255.797s-1.495.523-2.254.797c.455.273.88.601 1.275.979.394.382.743.799 1.047 1.253l-.683 1.365a17.509 17.509 0 0 1 2.96-.456c.028-.788.037-1.577.022-2.367a39.992 39.992 0 0 0-.112-2.368zM35.679 50.273v-3.932h1.231v3.932h-1.231zM37.345 48.993l1.197-.073a.9.9 0 0 0 .439.57c.22.121.518.183.892.183.397 0 .695-.054.896-.161.201-.109.301-.235.301-.381a.288.288 0 0 0-.126-.237c-.085-.065-.232-.122-.443-.171-.145-.031-.472-.09-.985-.17-.659-.106-1.123-.236-1.389-.391-.375-.216-.562-.48-.562-.79 0-.201.088-.388.264-.563.176-.175.43-.307.761-.398a4.576 4.576 0 0 1 1.2-.137c.766 0 1.341.107 1.728.324s.59.506.609.867l-1.23.034a.651.651 0 0 0-.339-.435c-.173-.09-.434-.134-.78-.134-.357 0-.638.047-.84.142-.13.062-.195.143-.195.246 0 .092.061.172.183.238.155.083.532.172 1.131.262.6.092 1.043.186 1.328.283.288.099.513.231.675.4a.87.87 0 0 1 .243.626c0 .226-.098.437-.291.633-.194.198-.469.344-.823.438-.355.097-.797.145-1.326.145-.771 0-1.363-.115-1.775-.346-.416-.228-.663-.563-.743-1.004zM42.333 48.993l1.197-.073a.895.895 0 0 0 .438.57c.22.121.518.183.893.183.396 0 .694-.054.896-.161.201-.109.301-.235.301-.381a.288.288 0 0 0-.126-.237c-.085-.065-.233-.122-.442-.171-.145-.031-.474-.09-.986-.17-.659-.106-1.123-.236-1.389-.391-.375-.216-.562-.48-.562-.79 0-.201.088-.388.265-.563.176-.175.429-.307.76-.398a4.59 4.59 0 0 1 1.201-.137c.765 0 1.34.107 1.727.324s.59.506.609.867l-1.23.034a.647.647 0 0 0-.34-.435c-.172-.09-.433-.134-.779-.134-.356 0-.637.047-.84.142-.13.062-.195.143-.195.246 0 .092.061.172.183.238.155.083.532.172 1.132.262.599.092 1.041.186 1.328.283.287.099.512.231.674.4a.871.871 0 0 1 .244.626c0 .226-.098.437-.292.633-.194.198-.468.344-.823.438-.354.097-.797.145-1.326.145-.771 0-1.362-.115-1.775-.346-.418-.228-.663-.563-.743-1.004zM47.899 50.273v-3.932h4.52v.665H49.13v.871h3.061v.663H49.13v1.07h3.405v.662h-4.636zM53.116 50.273v-3.932h1.23v3.932h-1.23zM57.026 46.342h1.23v2.13c0 .337.015.558.046.656.053.161.178.29.376.388.197.098.47.146.813.146.349 0 .612-.047.79-.139.177-.092.283-.205.319-.34.037-.133.055-.355.055-.668v-2.174h1.231v2.064c0 .473-.034.807-.101 1a1.014 1.014 0 0 1-.367.494c-.18.135-.419.242-.718.321-.3.079-.69.119-1.173.119-.582 0-1.023-.044-1.325-.129-.3-.088-.538-.2-.713-.339-.174-.14-.29-.283-.345-.437-.081-.226-.12-.558-.12-.998v-2.094zM62.742 50.273v-3.932h1.842l1.106 2.682 1.094-2.682h1.847v3.932h-1.144v-3.096l-1.21 3.096H65.09l-1.205-3.096v3.096h-1.143zM69.389 50.273v-3.932h1.23v3.932h-1.23zM74.68 50.273v-3.267h-1.81v-.665h4.845v.665H75.91v3.267h-1.23zM83.582 50.273h-1.34l-.532-.894h-2.437l-.503.894h-1.307l2.375-3.932h1.302l2.442 3.932zm-2.267-1.556l-.84-1.459-.823 1.459h1.663zM83.812 50.273v-3.932h2.591c.651 0 1.125.035 1.42.105s.531.195.709.377c.178.18.267.387.267.62 0 .294-.134.538-.403.73-.269.191-.672.312-1.205.362.266.101.484.211.657.332.174.119.407.331.701.639l.744.766h-1.472l-.89-.855c-.316-.306-.532-.498-.649-.577a.988.988 0 0 0-.369-.163 2.95 2.95 0 0 0-.62-.047h-.249v1.643h-1.232zm1.231-2.27h.91c.591 0 .96-.015 1.106-.047s.262-.089.345-.166a.393.393 0 0 0 .125-.296.38.38 0 0 0-.164-.32.93.93 0 0 0-.464-.154c-.1-.009-.398-.013-.897-.013h-.961v.996zM89.283 48.332c0-.4.093-.738.278-1.01.14-.199.328-.379.567-.539a2.73 2.73 0 0 1 .789-.354 4.99 4.99 0 0 1 1.314-.156c.897 0 1.616.179 2.155.541.54.359.809.857.809 1.498 0 .635-.267 1.133-.803 1.49-.534.358-1.25.538-2.146.538-.906 0-1.627-.179-2.162-.536-.534-.355-.801-.847-.801-1.472zm1.268-.027c0 .446.16.783.479 1.014.319.229.724.344 1.215.344.49 0 .893-.113 1.207-.342.315-.229.472-.569.472-1.027 0-.449-.152-.786-.459-1.008-.307-.221-.713-.332-1.22-.332-.508 0-.918.111-1.229.336-.309.224-.465.562-.465 1.015z"/><circle fill="#FFF" cx="18.542" cy="12.689" r="4.219"/><circle fill="#FFF" cx="87.871" cy="23.398" r="2.116"/><path fill="#FFF" d="M25.903 30.687H37.93a1.353 1.353 0 0 0 0-2.706H25.903c-5.681 0-6.303 2.82-6.307 4.031a3.418 3.418 0 0 0 1.007 2.474c1.052 1.057 2.778 1.567 5.279 1.567h6.831c2.339 0 3.129.54 3.359.771.154.155.221.32.22.554-.006 1.241-2.759 1.337-3.603 1.337H19.984a1.353 1.353 0 1 0 0 2.707H32.69c5.677 0 6.303-2.819 6.308-4.032a3.41 3.41 0 0 0-1.008-2.474c-1.051-1.055-2.776-1.567-5.276-1.567h-6.831c-2.341 0-3.132-.541-3.362-.773a.718.718 0 0 1-.219-.555c.003-1.239 2.756-1.334 3.601-1.334zM46.64 30.687h12.022a1.353 1.353 0 0 0 0-2.706H46.64c-5.681 0-6.304 2.819-6.309 4.031a3.418 3.418 0 0 0 1.008 2.474c1.052 1.057 2.778 1.568 5.279 1.568h6.831c2.338 0 3.126.539 3.356.771.155.155.22.32.22.554-.006 1.241-2.756 1.337-3.599 1.337H40.719a1.353 1.353 0 1 0 0 2.707h12.708c5.671 0 6.296-2.818 6.302-4.032a3.415 3.415 0 0 0-1.007-2.474c-1.051-1.055-2.774-1.567-5.272-1.567h-6.831c-2.34 0-3.132-.541-3.362-.773a.713.713 0 0 1-.219-.553c.004-1.242 2.757-1.337 3.602-1.337zM72.443 27.925c-8.544 0-11.587 3.618-11.599 6.714-.005 1.354.584 2.693 1.658 3.771 1.951 1.96 5.282 2.954 9.899 2.954h8.686a1.352 1.352 0 1 0 0-2.706h-8.686c-4.822 0-7.004-1.175-7.984-2.159-.759-.763-.87-1.486-.869-1.851.006-1.493 1.885-4.02 8.895-4.02 4.783 0 7.1 1.744 7.883 2.662H66.809a1.354 1.354 0 1 0 0 2.707h13.896c1.802 0 2.615-1.182 2.622-2.354.004-1.025-.811-1.997-1.296-2.484-.967-.973-3.84-3.234-9.588-3.234zM87.856 27.567c-.747 0-1.354.606-1.354 1.353v11.094a1.353 1.353 0 0 0 2.707 0V28.919a1.354 1.354 0 0 0-1.353-1.352z"/><path fill="#FFF" d="M29.903 43.953c-2.879 1.775-5.738 2.715-8.272 2.715-2.651 0-4.694-.998-6.072-2.965-2.325-3.314-2.406-8.883-.211-14.912l2.173-6.125a2.303 2.303 0 0 0-1.401-2.936 2.304 2.304 0 0 0-2.938 1.404l-2.166 6.104v.002C8.588 33.905 5.471 37.751 1.75 38.673a2.3 2.3 0 1 0 1.104 4.463c2.361-.584 4.503-1.866 6.417-3.83.3 2.679 1.14 5.069 2.518 7.035 2.226 3.176 5.723 4.926 9.843 4.926 3.388 0 7.083-1.176 10.688-3.4a2.301 2.301 0 0 0 .75-3.166 2.304 2.304 0 0 0-3.167-.748z"/></svg>