<?xml version="1.0" encoding="utf-8"?>
<!-- Generator: Adobe Illustrator 15.0.2, SVG Export Plug-In  -->
<!DOCTYPE svg PUBLIC "-//W3C//DTD SVG 1.1//EN" "http://www.w3.org/Graphics/SVG/1.1/DTD/svg11.dtd" [
	<!ENTITY ns_flows "http://ns.adobe.com/Flows/1.0/">
]>
<svg version="1.1"
	 xmlns="http://www.w3.org/2000/svg" xmlns:xlink="http://www.w3.org/1999/xlink" xmlns:a="http://ns.adobe.com/AdobeSVGViewerExtensions/3.0/"
	 x="0px" y="0px" width="222px" height="24px" viewBox="-0.711 -0.528 222 24" enable-background="new -0.711 -0.528 222 24"
	 xml:space="preserve">
<defs>
</defs>
<path fill="#231815" d="M0,10.757V9.556h0.654V4.704H0.017V3.503h2.706v1.201H2.101v4.852h0.622v1.201H0z"/>
<path fill="#231815" d="M11.942,9.268c0,0.426-0.156,0.783-0.466,1.072c-0.278,0.255-0.581,0.379-0.908,0.379l-3.483-0.006V9.318
	l3.001,0.011c0.137,0.004,0.237-0.021,0.302-0.075c0.066-0.058,0.099-0.15,0.099-0.277l-0.008-0.643
	c0-0.258-0.167-0.415-0.498-0.479L8.376,7.558C7.422,7.391,6.945,6.869,6.945,5.995l0.008-1.058c0-0.469,0.167-0.84,0.5-1.119
	c0.272-0.221,0.583-0.334,0.931-0.334l3.19,0.01v1.373l-2.796-0.02c-0.272,0-0.409,0.16-0.409,0.479
	c0,0.042,0.002,0.111,0.008,0.208c0.005,0.096,0.007,0.168,0.007,0.219c0,0.156,0.061,0.267,0.181,0.33
	c0.043,0.021,0.167,0.055,0.368,0.102c0.376,0.098,0.895,0.193,1.554,0.289c0.426,0.059,0.769,0.223,1.03,0.486
	c0.284,0.291,0.426,0.666,0.426,1.129V9.268z"/>
<path fill="#231815" d="M13.282,10.739V3.477h5.388V4.83h-3.893v1.563h3.508v1.347h-3.508v1.626h3.958v1.374H13.282z"/>
<path fill="#231815" d="M24.639,10.713l-0.637-1.844l-2.551-0.01l-0.646,1.854h-1.545l2.674-7.229h1.619l2.739,7.229H24.639z
	 M22.743,5.174l-0.834,2.375h1.644L22.743,5.174z"/>
<path fill="#231815" d="M32.931,10.719h-1.611l-1.528-2.881l-1.031,0.01v2.865h-1.513V3.484h3.696c0.332,0,0.635,0.124,0.907,0.372
	c0.312,0.275,0.467,0.628,0.467,1.058l0.008,1.352c0,0.373-0.091,0.693-0.274,0.955c-0.181,0.262-0.425,0.44-0.731,0.537
	l1.627,2.863L32.931,10.719z M30.469,4.805L28.76,4.813v1.725l1.585-0.007c0.339,0,0.51-0.174,0.516-0.515V5.164
	c0-0.125-0.033-0.216-0.099-0.273C30.698,4.833,30.6,4.805,30.469,4.805z"/>
<path fill="#231815" d="M39.446,10.692h-3.957c-0.534,0-0.94-0.144-1.218-0.433c-0.24-0.254-0.361-0.584-0.361-0.992V4.982
	c0-0.51,0.189-0.896,0.565-1.154c0.283-0.193,0.622-0.289,1.014-0.289h3.868l-0.009,1.354h-3.467c-0.191,0-0.32,0.035-0.388,0.105
	c-0.068,0.071-0.102,0.188-0.102,0.356V8.77c0,0.229,0.037,0.379,0.109,0.453c0.074,0.07,0.223,0.106,0.446,0.106h3.507
	L39.446,10.692z"/>
<path fill="#231815" d="M44.981,10.729v-3.16h-2.951v3.16h-1.481V3.484h1.481v2.719h2.951V3.484h1.472v7.245H44.981z"/>
<path fill="#231815" d="M53.722,4.83v1.627h3.614v1.301l-3.614,0.011v2.961h-1.479V3.494h5.307v1.328L53.722,4.83z"/>
<path fill="#231815" d="M63.265,10.692h-3.083c-0.535,0-0.941-0.144-1.219-0.433c-0.244-0.254-0.367-0.584-0.367-0.992V4.982
	c0-0.51,0.184-0.896,0.555-1.154c0.285-0.193,0.622-0.289,1.015-0.289h2.96c0.469,0,0.85,0.137,1.145,0.408
	c0.294,0.269,0.44,0.622,0.44,1.055v4.157c0,0.378-0.1,0.706-0.302,0.983C64.146,10.509,63.766,10.692,63.265,10.692z M63.215,5.371
	c0-0.228-0.037-0.375-0.111-0.439c-0.072-0.066-0.227-0.102-0.461-0.102h-2.086c-0.191,0-0.32,0.035-0.387,0.105
	c-0.068,0.066-0.103,0.186-0.103,0.347v3.521c0,0.232,0.035,0.381,0.105,0.453c0.071,0.073,0.222,0.109,0.45,0.109h2.002
	c0.23,0,0.385-0.039,0.467-0.117s0.123-0.233,0.123-0.461V5.371z"/>
<path fill="#231815" d="M71.865,10.719h-1.611l-1.527-2.881l-1.031,0.01v2.865h-1.512V3.484h3.695c0.332,0,0.635,0.124,0.907,0.372
	c0.311,0.275,0.466,0.628,0.466,1.058l0.008,1.352c0,0.373-0.09,0.693-0.273,0.955c-0.182,0.262-0.426,0.44-0.732,0.537l1.628,2.863
	L71.865,10.719z M69.404,4.805l-1.709,0.008v1.725l1.586-0.007c0.338,0,0.51-0.174,0.516-0.515V5.164
	c0-0.125-0.033-0.216-0.098-0.273C69.633,4.833,69.535,4.805,69.404,4.805z"/>
<path fill="#231815" d="M81.914,9.268c0,0.426-0.155,0.783-0.466,1.072c-0.278,0.255-0.581,0.379-0.908,0.379l-3.482-0.006V9.32
	l3.001,0.009c0.136,0.004,0.236-0.021,0.302-0.075c0.065-0.058,0.099-0.15,0.099-0.277L80.45,8.334c0-0.258-0.166-0.415-0.498-0.477
	l-1.603-0.3c-0.955-0.167-1.431-0.688-1.431-1.561l0.009-1.06c0-0.469,0.166-0.84,0.497-1.119c0.272-0.221,0.584-0.334,0.934-0.334
	l3.188,0.01v1.373l-2.797-0.02c-0.273,0-0.408,0.16-0.408,0.479c0,0.042,0.002,0.111,0.008,0.208
	c0.006,0.096,0.009,0.168,0.009,0.219c0,0.156,0.059,0.267,0.179,0.33c0.044,0.021,0.167,0.055,0.367,0.102
	c0.377,0.097,0.895,0.193,1.555,0.289c0.425,0.059,0.768,0.223,1.03,0.486c0.284,0.291,0.425,0.67,0.425,1.129V9.268z"/>
<path fill="#231815" d="M82.921,10.757V9.556h0.653V4.704h-0.639V3.503h2.707v1.201h-0.621v4.852h0.621v1.201H82.921z"/>
<path fill="#231815" d="M91.505,10.729l-3.173-4.895v4.904h-1.455V3.512h1.586l2.92,4.408V3.503h1.471v7.227H91.505z"/>
<path fill="#231815" d="M99.902,10.692h-3.959c-0.533,0-0.939-0.144-1.217-0.433c-0.24-0.254-0.359-0.584-0.359-0.992V4.984
	c0-0.512,0.188-0.898,0.563-1.156c0.283-0.193,0.622-0.289,1.013-0.289h3.868l-0.008,1.354h-3.466c-0.191,0-0.32,0.035-0.389,0.105
	c-0.068,0.071-0.103,0.188-0.103,0.356V8.77c0,0.229,0.038,0.379,0.11,0.453c0.074,0.07,0.222,0.106,0.445,0.106h3.508
	L99.902,10.692z"/>
<path fill="#231815" d="M101.071,10.739V3.477h5.388V4.83h-3.893v1.563h3.51v1.347h-3.51v1.626h3.958v1.374H101.071z"/>
<path fill="#231815" d="M113.36,10.719h-1.611l-1.528-2.881l-1.031,0.01v2.865h-1.512V3.484h3.695c0.332,0,0.636,0.124,0.907,0.372
	c0.312,0.275,0.467,0.628,0.467,1.058l0.008,1.352c0,0.373-0.091,0.693-0.274,0.955c-0.183,0.262-0.426,0.44-0.731,0.537
	l1.628,2.863L113.36,10.719z M110.899,4.805l-1.71,0.008v1.725l1.588-0.007c0.336,0,0.508-0.174,0.514-0.515V5.164
	c0-0.125-0.033-0.216-0.097-0.273C111.129,4.833,111.029,4.805,110.899,4.805z"/>
<path fill="#231815" d="M114.316,10.739V3.477h5.389V4.83h-3.892v1.563h3.507v1.347h-3.507v1.626h3.958v1.374H114.316z"/>
<path fill="#231815" d="M130.264,10.713l-0.638-1.844l-2.552-0.01l-0.646,1.854h-1.545l2.674-7.229h1.618l2.74,7.229H130.264z
	 M128.366,5.174l-0.834,2.375h1.643L128.366,5.174z"/>
<path fill="#231815" d="M138.406,10.729l-3.172-4.895v4.904h-1.456V3.512h1.587l2.918,4.408V3.503h1.473v7.227H138.406z"/>
<path fill="#231815" d="M146.583,10.692l-4.194,0.021V3.529l4.137,0.01c0.469,0,0.862,0.158,1.182,0.48
	c0.318,0.316,0.479,0.691,0.479,1.119v3.873c0,0.387-0.114,0.738-0.344,1.058C147.542,10.486,147.123,10.692,146.583,10.692z
	 M146.729,5.518c0-0.452-0.215-0.678-0.646-0.678h-2.199v4.525h2.183c0.441,0,0.662-0.239,0.662-0.723V5.518z"/>
<path fill="#231815" d="M0,19.779v-7.262h5.389v1.354H1.496v1.564h3.508v1.347H1.496v1.623h3.957v1.374H0z"/>
<path fill="#231815" d="M12.476,19.733l-1.668-2.456l-1.741,2.468H7.424v-0.126l2.509-3.531l-2.297-3.39v-0.154h1.619l1.537,2.313
	l1.464-2.302h1.627l0.008,0.161l-2.2,3.351l2.501,3.542l-0.008,0.125H12.476z"/>
<path fill="#231815" d="M19.868,13.9v5.862h-1.48V13.9h-2.289v-1.363h6.099V13.9H19.868z"/>
<path fill="#231815" d="M30.39,19.763h-1.609l-1.53-2.884l-1.03,0.012v2.861h-1.512v-7.225h3.696c0.332,0,0.635,0.122,0.908,0.369
	c0.311,0.277,0.466,0.629,0.466,1.056l0.009,1.356c0,0.374-0.092,0.689-0.274,0.953c-0.183,0.262-0.427,0.44-0.731,0.539
	l1.627,2.861L30.39,19.763z M27.93,13.845l-1.71,0.01v1.726l1.587-0.011c0.338,0,0.51-0.17,0.514-0.515v-0.848
	c0-0.127-0.032-0.219-0.097-0.277C28.158,13.875,28.061,13.845,27.93,13.845z"/>
<path fill="#231815" d="M32.779,19.779v-7.262h5.387v1.354h-3.891v1.564h3.507v1.347h-3.507v1.623h3.958v1.374H32.779z"/>
<path fill="#231815" d="M46.082,19.79v-4.472l-1.398,4.154h-1.136l-1.375-4.118v4.425h-1.414v-7.242h1.774l1.595,4.731l1.57-4.725
	h1.815v7.246H46.082z"/>
<path fill="#231815" d="M50.447,19.779v-7.262h5.389v1.354h-3.893v1.564h3.508v1.347h-3.508v1.623H55.9v1.374H50.447z"/>
<path fill="#231815" d="M68.354,19.79v-1.203h0.653v-4.85h-0.638v-1.2h2.707v1.2h-0.622v4.85h0.622v1.203H68.354z"/>
<path fill="#231815" d="M78.369,19.763l-3.172-4.896v4.904h-1.455v-7.228h1.586l2.918,4.409v-4.416h1.472v7.226H78.369z"/>
<path fill="#231815" d="M87.437,18.298c0,0.428-0.155,0.786-0.466,1.075c-0.278,0.253-0.581,0.379-0.908,0.379l-3.483-0.007v-1.392
	l3.001,0.007c0.137,0.009,0.237-0.018,0.303-0.075c0.065-0.057,0.098-0.15,0.098-0.274l-0.008-0.641
	c0-0.261-0.166-0.421-0.498-0.479l-1.603-0.298c-0.954-0.171-1.432-0.69-1.432-1.565l0.008-1.055c0-0.471,0.167-0.843,0.5-1.119
	c0.272-0.224,0.582-0.336,0.931-0.336l3.189,0.01V13.9l-2.795-0.018c-0.273,0-0.41,0.158-0.41,0.477
	c0,0.042,0.004,0.114,0.009,0.209c0.005,0.096,0.007,0.168,0.007,0.216c0,0.159,0.061,0.268,0.181,0.333
	c0.044,0.02,0.166,0.054,0.368,0.101c0.375,0.099,0.894,0.194,1.553,0.288c0.426,0.061,0.77,0.223,1.031,0.49
	c0.283,0.289,0.425,0.666,0.425,1.128V18.298z"/>
<path fill="#231815" d="M93.912,17.105l-2.182,0.019v2.655h-1.514v-7.242h3.785c0.326,0,0.629,0.125,0.908,0.379
	c0.31,0.281,0.466,0.641,0.466,1.074v1.535c0,0.471-0.138,0.85-0.413,1.139S94.338,17.1,93.912,17.105z M93.512,13.854l-1.781,0.01
	v1.878h1.658c0.344,0,0.516-0.173,0.516-0.514l0.008-0.932c0-0.134-0.034-0.238-0.102-0.321
	C93.742,13.896,93.643,13.854,93.512,13.854z"/>
<path fill="#231815" d="M97.837,19.79v-1.203h0.654v-4.85h-0.638v-1.2h2.705v1.2h-0.621v4.85h0.621v1.203H97.837z"/>
<path fill="#231815" d="M108.924,19.752h-1.61l-1.528-2.879l-1.03,0.006v2.866h-1.513v-7.228h3.695c0.332,0,0.635,0.121,0.906,0.37
	c0.311,0.278,0.467,0.628,0.467,1.058l0.009,1.354c0,0.373-0.092,0.692-0.274,0.954c-0.183,0.264-0.426,0.441-0.731,0.536
	l1.627,2.864L108.924,19.752z M106.463,13.838l-1.708,0.007v1.725l1.585-0.007c0.338,0,0.51-0.171,0.516-0.516v-0.849
	c0-0.128-0.033-0.217-0.1-0.274C106.691,13.864,106.594,13.838,106.463,13.838z"/>
<path fill="#231815" d="M116.07,19.745l-0.639-1.843l-2.55-0.011l-0.647,1.854h-1.545l2.674-7.228h1.619l2.74,7.228H116.07z
	 M114.173,14.207l-0.833,2.375h1.643L114.173,14.207z"/>
<path fill="#231815" d="M123.396,13.889v5.863h-1.48v-5.863h-2.289v-1.361h6.099v1.361H123.396z"/>
<path fill="#231815" d="M127.893,19.79v-1.203h0.654v-4.85h-0.639v-1.2h2.707v1.2h-0.621v4.85h0.621v1.203H127.893z"/>
<path fill="#231815" d="M137.875,19.725h-3.081c-0.535,0-0.94-0.143-1.218-0.432c-0.247-0.255-0.369-0.586-0.369-0.995v-4.28
	c0-0.512,0.186-0.898,0.557-1.156c0.283-0.194,0.621-0.289,1.014-0.289h2.959c0.47,0,0.852,0.135,1.145,0.406
	c0.296,0.271,0.441,0.623,0.441,1.057v4.156c0,0.377-0.1,0.705-0.301,0.983C138.76,19.541,138.378,19.725,137.875,19.725z
	 M137.826,14.404c0-0.229-0.035-0.377-0.109-0.44c-0.072-0.067-0.229-0.1-0.463-0.1h-2.084c-0.191,0-0.32,0.032-0.389,0.104
	c-0.068,0.067-0.102,0.183-0.102,0.347v3.524c0,0.229,0.035,0.379,0.106,0.451c0.069,0.07,0.22,0.108,0.449,0.108h2.003
	c0.229,0,0.385-0.039,0.466-0.118c0.083-0.078,0.122-0.229,0.122-0.458V14.404z"/>
<path fill="#231815" d="M146.838,19.763l-3.174-4.896v4.904h-1.455v-7.228h1.587l2.919,4.409v-4.416h1.471v7.226H146.838z"/>
<path fill="#231815" d="M62.078,12.799c-1.854,0-3.354,1.502-3.354,3.354c0,1.855,1.5,3.355,3.354,3.355
	c1.853,0,3.355-1.5,3.355-3.354S63.931,12.799,62.078,12.799z M62.078,18.911c-1.521,0-2.758-1.235-2.758-2.759
	c0-1.521,1.236-2.756,2.758-2.756c1.523,0,2.758,1.234,2.758,2.758C64.836,17.676,63.602,18.911,62.078,18.911z"/>
<circle fill="#231815" cx="62.079" cy="16.153" r="1.776"/>
<path fill="#231815" d="M210.127,4.671c-5.436-1.944-12.673-3.013-20.376-3.013c-7.704,0-14.939,1.068-20.376,3.013
	c-5.234,1.869-8.237,4.407-8.237,6.963c0,2.554,3.003,5.093,8.237,6.963c5.437,1.941,12.672,3.011,20.376,3.011
	c7.703,0.002,14.94-1.069,20.376-3.011c5.234-1.87,8.242-4.409,8.242-6.963C218.369,9.078,215.361,6.54,210.127,4.671z
	 M179.553,2.676c0.967,0,1.751,0.785,1.751,1.752c0,0.969-0.784,1.752-1.751,1.752c-0.969,0-1.752-0.783-1.752-1.752
	C177.801,3.461,178.584,2.676,179.553,2.676z M184.932,18.228c-1.42,0.876-2.875,1.339-4.208,1.339
	c-1.622,0-2.999-0.689-3.874-1.939c-0.541-0.772-0.871-1.715-0.99-2.77c-0.754,0.773-1.596,1.279-2.525,1.508
	c-0.072,0.02-0.146,0.028-0.219,0.028c-0.406,0-0.774-0.276-0.878-0.688c-0.12-0.486,0.177-0.978,0.661-1.094
	c1.466-0.365,2.692-1.879,3.648-4.505l0.861-2.367c0.171-0.469,0.689-0.71,1.16-0.54s0.713,0.691,0.541,1.16l-0.861,2.367
	c-0.861,2.365-0.828,4.555,0.086,5.861c0.542,0.775,1.346,1.168,2.39,1.168c0.998,0,2.124-0.369,3.257-1.068
	c0.426-0.262,0.984-0.131,1.246,0.293C185.489,17.408,185.357,17.965,184.932,18.228z M185.018,15.758h-5.003
	c-0.322,0-0.585-0.264-0.585-0.584c0-0.325,0.263-0.587,0.585-0.587h5.003c0.41,0,1.363-0.054,1.364-0.542
	c0.001-0.131-0.046-0.194-0.091-0.239c-0.09-0.089-0.389-0.297-1.264-0.297h-2.689c-0.967,0-1.671-0.214-2.096-0.641
	c-0.285-0.285-0.435-0.657-0.433-1.071c0.001-0.515,0.253-1.707,2.536-1.707h4.734c0.324,0,0.587,0.26,0.587,0.584
	s-0.263,0.586-0.587,0.586h-4.734c-0.41,0-1.363,0.053-1.364,0.541c-0.001,0.13,0.046,0.193,0.091,0.241
	c0.089,0.089,0.391,0.296,1.266,0.296h2.689c0.965,0,1.669,0.215,2.094,0.637c0.284,0.289,0.436,0.658,0.434,1.074
	C187.553,14.563,187.302,15.758,185.018,15.758z M189.236,12.042c0.089,0.089,0.389,0.296,1.265,0.296h2.688
	c0.967,0,1.67,0.215,2.096,0.637c0.283,0.289,0.432,0.658,0.432,1.074c-0.003,0.515-0.254,1.709-2.535,1.709h-5.004
	c-0.322,0-0.586-0.264-0.586-0.584c0-0.325,0.264-0.587,0.586-0.587h5.004c0.409,0,1.361-0.054,1.364-0.542
	c0-0.131-0.048-0.194-0.093-0.24c-0.088-0.088-0.389-0.296-1.264-0.296h-2.688c-0.966,0-1.671-0.214-2.094-0.641
	c-0.286-0.285-0.437-0.657-0.435-1.071c0.002-0.515,0.252-1.707,2.537-1.707h4.733c0.323,0,0.587,0.26,0.587,0.584
	s-0.264,0.586-0.587,0.586h-4.733c-0.41,0-1.363,0.053-1.365,0.541C189.144,11.931,189.19,11.994,189.236,12.042z M203.923,13.484
	h-5.472c-0.322,0-0.586-0.26-0.586-0.585c0-0.323,0.264-0.587,0.586-0.587h5.26c-0.333-0.4-1.291-1.077-3.041-1.077
	c-2.718,0-3.446,1.048-3.449,1.665c0,0.161,0.048,0.485,0.375,0.812c0.387,0.39,1.23,0.85,3.059,0.85h3.418
	c0.324,0,0.587,0.265,0.587,0.587c0,0.324-0.263,0.586-0.587,0.586h-3.418c-1.791,0-3.099-0.402-3.889-1.193
	c-0.625-0.629-0.718-1.3-0.716-1.644c0.005-1.308,1.217-2.834,4.62-2.834c2.221,0,3.369,0.914,3.76,1.308
	c0.217,0.217,0.58,0.65,0.578,1.107C205.005,12.98,204.669,13.484,203.923,13.484z M207.322,15.148c0,0.324-0.262,0.586-0.586,0.586
	c-0.322,0-0.586-0.262-0.586-0.586V10.5c0-0.323,0.264-0.585,0.586-0.585c0.324,0,0.586,0.262,0.586,0.585V15.148z M206.743,9.443
	c-0.46,0-0.833-0.373-0.833-0.833c0-0.462,0.373-0.833,0.833-0.833s0.833,0.371,0.833,0.833
	C207.576,9.07,207.203,9.443,206.743,9.443z"/>
<path fill="#231815" d="M189.754,0c-16.868-0.001-30.547,5.207-30.547,11.633c0,6.424,13.679,11.633,30.547,11.633
	S220.3,18.057,220.3,11.633C220.3,5.207,206.622,0,189.754,0z M210.411,19.327c-5.519,1.97-12.848,3.058-20.638,3.058
	s-15.119-1.088-20.637-3.058c-5.644-2.019-8.752-4.75-8.752-7.694c0-2.945,3.108-5.677,8.752-7.693
	c5.518-1.973,12.847-3.059,20.637-3.059s15.119,1.086,20.638,3.059c5.644,2.017,8.757,4.748,8.757,7.693
	C219.168,14.577,216.055,17.309,210.411,19.327z"/>
</svg>
