<svg xmlns="http://www.w3.org/2000/svg" width="317" height="29" viewBox="-0.048 -0.475 317 29"><path fill="#FFF" d="M0 15.979C0 9.641 4.675 3.115 13.208 3.115c3.105 0 7.886.992 7.886 3.894 0 1.557-1.425 2.443-3.675 2.443-1.462 0 .502-2.523-4.033-2.523-5.642 0-7.602 4.806-7.602 8.541 0 2.925 1.105 6.013 5.781 6.013 2.214 0 4.606-.698 4.606-2.578 0-2.175-2.821-2.363-2.821-3.062 0-.349 6.137-2.014 6.565-2.014.713 0 1.534 6.551 1.534 7.357 0 3.52-4.638 5.077-9.067 5.077C4.104 26.264 0 21.966 0 15.979zM25.857 24.835c-1.17 0-1.737.736-1.737-7.127 0-6.576-.251-8.049.632-8.074h2.622c.473 0 1.04-.116 1.073.334.062.356.123.807.756.807.476 0 1.01-.382 1.676-.76.661-.356 1.421-.734 2.271-.734 1.61 0 2.935 1.043 2.935 2.327 0 1.661-1.796 2.657-2.746 2.657-.378 0 .062-1.592-2.116-1.592-2.654 0-2.839 3.207-2.839 4.633 0 4.725 1.072 6.722 1.072 7.147-.032.382-.727.382-1.072.382h-2.527zM36.746 17.876c0-5.749 4.232-8.595 8.463-8.595 3.472 0 6.41 1.468 6.41 4.272 0 5.107-10.169 4.039-10.169 6.508 0 1.116 2.403 1.923 3.978 1.923 5.18 0 5.18-2.966 5.62-2.966.478 0 .571 1.231.571 1.421 0 3.018-3.097 4.752-6.881 4.752-5.655 0-7.992-3.512-7.992-7.315zm4.261-2.353c0 .262.16.525.57.525.378 0 6.127-.95 6.127-2.164 0-1.164-1.455-1.803-2.655-1.803-2.554.001-4.042 2.068-4.042 3.442zM53.32 17.876c0-5.749 4.229-8.595 8.461-8.595 3.472 0 6.41 1.468 6.41 4.272 0 5.107-10.166 4.039-10.166 6.508 0 1.116 2.4 1.923 3.978 1.923 5.177 0 5.177-2.966 5.621-2.966.472 0 .567 1.231.567 1.421 0 3.018-3.094 4.752-6.883 4.752-5.649 0-7.988-3.512-7.988-7.315zm4.266-2.353c0 .262.156.525.563.525.382 0 6.13-.95 6.13-2.164 0-1.164-1.454-1.803-2.654-1.803-2.556.001-4.039 2.068-4.039 3.442zM80.439 24.835c-.411 0-1.105.072-1.105-.381 0-.238 1.61-3.397 1.61-8.218 0-1.688-.189-3.799-2.337-3.799-1.2 0-3.662.592-3.662 5.292 0 2.855.917 6.513.917 6.795 0 .332-.538.311-.854.311h-2.684c-1.167 0-1.639.403-1.639-5.865 0-10.761 1.102-10.097 3.534-10.097 1.105 0 2.243-.115 2.243.429 0 .237-.287.524-.287.855 0 .236.16.451.476.451.534 0 1.985-.975 4.01-.975.883 0 4.544.098 4.544 6.345 0 9.329-.978 8.856-2.05 8.856h-2.716zM87.351 23.341c0-.949 1.05-1.729 2.315-1.729 1.327 0 2.4.761 2.4 1.742s-1.073 1.742-2.378 1.742-2.337-.788-2.337-1.755zM93.545 15.502c0-5.154 3.854-10.784 11.525-10.784 2.75 0 6.977.88 6.977 3.443 0 1.378-1.261 2.163-3.25 2.163-1.294 0 .44-2.232-3.566-2.232-4.61 0-6.566 3.538-6.566 6.508 0 4.534 4.101 6.363 6.85 6.363 5.145 0 5.587-3.466 5.872-3.466.443 0 .694 1.898.694 2.135 0 3.516-3.6 5.559-8.02 5.559-7.167 0-10.516-4.895-10.516-9.689zM116.342 24.835c-1.171 0-1.738.737-1.738-7.127 0-6.576-.251-8.049.633-8.074h2.622c.472 0 1.039-.116 1.068.334.065.356.127.807.76.807.473 0 1.011-.382 1.672-.76.666-.356 1.422-.735 2.276-.735 1.607 0 2.935 1.044 2.935 2.327 0 1.661-1.8 2.657-2.746 2.657-.382 0 .063-1.592-2.116-1.592-2.653 0-2.842 3.207-2.842 4.633 0 4.725 1.076 6.722 1.076 7.148-.033.381-.727.381-1.076.381h-2.524zM135.062 14.953c.912-.116 1.639-.236 1.639-1.021 0-1.211-1.672-1.85-3.061-1.85-3.221 0-2.749 2.042-3.442 2.042-1.011 0-2.116-.926-2.116-1.948 0-1.757 2.621-2.895 5.526-2.895 1.01 0 5.336-.025 6.948 3.298.661 1.376.723 8.408.723 9.237 0 1.048.255 1.666.255 2.474 0 .498-2.97.545-5.78.545-7.607 0-8.146-2.945-8.146-4.371-.001-2.992 3.916-5.061 7.454-5.511zm1.956 4.16c0-.833.189-1.833-1.327-1.833-1.862 0-3.818 1.188-3.818 2.64 0 1.326 1.545 2.111 3.218 2.111 1.865 0 1.927-.712 1.927-1.874v-1.044zM143.801 22.199c0-.287.066-.975.917-.975 3.632.001 4.577-.879 4.577-1.188 0-.995-5.494-2.683-5.494-9.286 0-1.064-.029-1.115 1.2-1.115h2.592c.41 0 1.101-.069 1.101.428 0 .332-.283 1.07-.283 1.782 0 2.778 3.093 5.392 3.727 5.392 1.261 0 2.116-2.851 2.116-4.679 0-1.189-.35-2.185-.35-2.567 0-.425.789-.356 1.139-.356h2.81c.6.073.506.833.506 1.854.283 6.958-6.854 13.702-13.798 13.702-.727 0-.76-.355-.76-.9v-2.092zM159.871 23.341c0-.949 1.054-1.729 2.316-1.729 1.323 0 2.399.761 2.399 1.742s-1.076 1.742-2.377 1.742c-1.309.001-2.338-.788-2.338-1.755zM179.075 24.835c-1.545 0-1.674.498-1.674-7.865 0-2.107.033-3.37.096-3.962 0-.597-1.012-.902-1.895-.902h-1.482c-1.738 0-1.674 1.615-1.674 2.542 0 3.134 1.168 9.45 1.168 9.758 0 .523-.443.43-1.011.43h-3.378c-.473 0-1.043.711-1.043-7.104 0-1.185.098-2.37.098-3.56 0-.713.279-2.065-1.137-2.065-.572 0-.885.284-1.234.284-.41 0-.377-.308-.377-.734 0-1.807.694-2.021 1.894-2.021 1.418 0 1.418-1.589 1.861-2.657.601-1.474 2.56-2.401 4.199-2.401 2.179 0 6.159 0 6.159.807 0 .357-.698 2.709-1.389 2.709-.604 0-.57-.477-3.76-.477-.883 0-1.482.976-1.482 1.52 0 .334.316.734.82.734 2.272 0 1.419-.236 7.166-.236.695 0 1.041.192 1.041.476 0 .76-.375 1.636-.375 4.229 0 5.984 1.229 9.667 1.229 9.877 0 .761-.945.619-1.672.619h-2.148zM185.575 20.941c0-1.116.76-2.541 1.01-2.541.161 0 .949 3.584 5.432 3.584 1.296 0 2.812-.497 2.812-1.707 0-2.447-8.524-1.809-8.524-6.531 0-2.901 3.092-4.465 6.502-4.465 3.945 0 6.127 1.778 6.127 2.253 0 .452-1.767 2.375-2.494 2.375-.822 0-1.011-1.828-3.915-1.828-.978 0-2.306.33-2.306 1.043 0 2.445 9.221 2.398 9.221 7.22 0 3.086-3.41 4.847-7.199 4.847-3.349.001-6.666-1.473-6.666-4.25zM207.483 4.576c.283 0 .506.262.506.499 0 .335-1.199 2.661-1.199 4.56 0 .287 0 .738.534.738.257 0 .759-.214 1.454-.523.727-.284 1.609-.568 2.654-.568 2.872 0 4.986 1.542 4.986 7.265 0 2.278-.442 8.289-1.42 8.289h-3.283c-.283 0-1.138.068-1.138-.311 0-.162 1.577-4.867 1.577-8.026 0-3.679-.818-4.417-2.366-4.417-3.218 0-3.283 3.704-3.283 5.391 0 4.75.694 6.294.694 6.982 0 .381-.601.381-.916.381h-3.123c-.916 0-.916.806-.916-9.737 0-1.901.062-10.522 1.799-10.522h3.44zM218.533 23.341c0-.949 1.054-1.729 2.315-1.729 1.326 0 2.398.761 2.398 1.742s-1.072 1.742-2.377 1.742-2.336-.788-2.336-1.755zM305.705 21.435c0-.01.016-.021.016-.035-.07.043-.136.09-.2.133.261.176.552.307.952.376-.454-.084-.717-.251-.768-.474zM306.13 24.283a2.783 2.783 0 0 1-.832-.227c.192.117.423.207.702.229.043.001.09-.006.13-.002z"/><path fill="#FFF" d="M305.721 21.4c0 .014-.016.025-.016.035.051.223.313.39.768.474.094.011.186.028.29.04h.015c.727.043 1.782-.096 3.52-.527 1.439-.359 3.672-2.047 5.951-5.039.12-.346.307-1.146.295-1.408-.015-1.094.494-2.246.04-3.206-.291-.615-1.949-2.865-2.698-3.672-.181-.196-.341-.17-.454.055-1.08 3.737-2.883 8.51-4.828 10.893-.506.613-1.619 1.478-2.883 2.355z"/><path fill="#FFF" d="M316.351 18.341c.08-.367-.059-.49-.356-.299a7.786 7.786 0 0 0-.367.273c-1.803 2.055-3.639 3.443-5.152 3.822-1.559.384-2.628.559-3.436.559-.381 0-.687-.047-.971-.124-.458.037-.741.085-.788.267-.048.207.112.41.389.559.171.07.356.136.56.154.52.043 1.473-.069 2.32-.172.447-.051.869-.102 1.185-.127.236-.011.563.011.981.033.479.032 1.087.055 1.709.043.582-.139 1.371-.412 1.814-.92.552-.639 1.905-3.081 2.112-4.068zM275.675 18.15c-.317-1.02-1.916-1.848-3.523-2.328-3.13-.938-6.181-.465-6.181-.465s-.542 2.014-1.247 2.799c-2.236 2.479-3.788 2.313-11.263 3.69-4.916.905-16.216-.091-20.343-.359-.868-.059-2.229-.562-2.344-.062-.092.369.654 1.115 1.054 1.402 3.516 2.516 10.619 4.192 23.7 4.72 10.806.437 19.426-.626 20.848-2.263.279-.314-2.011-2.845-2.011-3.504 0-.654 1.426-3.249 1.31-3.63z"/><path fill="#FFF" d="M238.387 20.81c3.138.28 9.856.822 13.122.411 4.682-.586 9.946-1.88 10.728-2.112.782-.236 3.072-2.938 2.717-3.639-.356-.698-4.458.549-7.955 1.556-8.86 2.552-15.938 2.342-18.626 2.747-.992.15-1.41.238-1.306.619.098.382.334.327 1.32.418zM286.988 19.49c-1.291-1.625-3.552-2.057-5.108-2.213-2.519-.251-5.028 1.003-5.028 1.003s-1.472 2.719-1.407 3.469c.048.552 1.036 2.087 1.691 2.872.24.287.632.472.632.472.527.313 2.812.011 3.69-.433 2.897-1.442 5.53-5.17 5.53-5.17zM285.742 25.58c.687.04 4.838-3.071 4.973-3.617 0 0 .833-1.555-.258-2.178-1.051-.604-2.232.192-2.232.192-.219.571-2.214 4.243-4.116 4.589-.076.657-2.948 2.018-3.265 2.229 1.12.451 4.247-.302 4.898-1.215zM293.168 22.199c-.654-.535-2.039.699-2.039.699-.309.523-2.908 2.977-4.151 3.119-.157.447-1.175.701-1.516.854.585.178 2.85.092 2.974-.211.462.105 4.515-1.609 4.744-2.123 0 0 .846-1.639-.012-2.338zM294.209 24.977c-.618.767-4.036 2.188-4.407 2.249.48.365 4.862-.064 5.254-.264.223-.121.303-.248.32-.332.044-.218.44-.991.033-1.417-.388-.403-1.2-.236-1.2-.236zM247.927 7.806c1.764.68 3.733 1.439 6.398 2.851 3.171 1.668 5.872 3.854 6.428 4.104.124.054.862.316 1.789-.382 1.29-.967.935-1.694.561-2.021-.386-.328-1.302-.263-1.738.213l-.148.153a237.371 237.371 0 0 0-4.825-3.578c-2.099-1.521-4.309-2.908-5.857-3.724-.647-.334-1.203-.596-1.33-.378-.153.262.327.518.851.83 1.622.971 3.421 2.069 5.807 3.919.716.56 1.366 1.117 1.944 1.636a361.96 361.96 0 0 0-3.065-1.509c-2.333-1.13-4.755-2.115-6.423-2.635-.694-.222-1.283-.386-1.375-.142-.104.28.416.444.983.663zM309.785 23.992c-.307.021-.717.068-1.149.123-.741.088-1.56.186-2.156.186-.112 0-.218-.004-.313-.01 0 0-.025-.008-.037-.008-.04-.004-.087.003-.13.003a1.567 1.567 0 0 1-.702-.229 3.203 3.203 0 0 1-.927-.639.276.276 0 0 0-.197.04c-.77.498.76.505-1.771 1.323-.729.235-2.78 1.025-4.391.979-.645-.022-1 .082-1.025.409-.019.331.261.714 1.019.837 1.021.178 2.595.059 4.533-.203 2.493-.338 6.754-1.553 9.209-2.277.142-.047.162-.293.068-.442a19.28 19.28 0 0 1-1.152-.058 10.789 10.789 0 0 0-.879-.034zM267.93 10.372a2.437 2.437 0 0 0 2.433-2.436 2.431 2.431 0 0 0-2.433-2.429 2.429 2.429 0 0 0-2.432 2.429 2.435 2.435 0 0 0 2.432 2.436z"/><path fill="#FFF" d="M307.948 18.509c2.032-2.483 3.901-7.664 4.904-11.372.033-.412-.011-.767-.225-.971C311.079 4.701 305.276 0 294.489 0c-6.894 0-16.953 2.829-24.768 5.432a3.092 3.092 0 0 1 1.296 2.504 3.094 3.094 0 0 1-3.088 3.09 3.093 3.093 0 0 1-3.086-3.09c0-.298.051-.582.134-.858-4.188 1.508-6.983 2.658-6.983 2.658s2.934.585 4.697 1.29c1.756.706 3.185 2.145 3.185 2.145s3.433-.152 6.533.487c1.316.269 4.537 2.321 4.537 2.321s8.747-1.153 13.794 2.606c5.047 3.752 4.98 6.756 6.25 6.573.593-.079 2.854-1.105 5.392-2.589 2.138-1.329 4.76-3.075 5.566-4.06z"/></svg>